C:\Users\r0593348\3dpredictsim\Results\batch_windlass\Pog_s1_tmt_bCst_d05_k500_WL40_ig24_pas_GRF.mot
nRows=17
nColumns=19

name C:\Users\r0593348\3dpredictsim\Results\batch_windlass\Pog_s1_tmt_bCst_d05_k500_WL40_ig24_pas_GRF.mot
datacolumns 19
datarows 17
range 0.5461787344 0.7209559295
endheader
time 	ground_force_vx	ground_force_vy	ground_force_vz	ground_force_px	ground_force_py	ground_force_pz	1_ground_force_vx	1_ground_force_vy	1_ground_force_vz	1_ground_force_px	1_ground_force_py	1_ground_force_pz	ground_torque_x	ground_torque_y	ground_torque_z	1_ground_torque_x	1_ground_torque_y	1_ground_torque_z
        0.5461787344	       77.6576030826	      417.3543922584	        2.4762305984	        0.3579402313	        0.0000000000	        0.0315094376	      -74.5557183939	       53.9108985071	      -19.6753088002	        0.8225462021	        0.0000000000	       -0.0451454091	        0.0000000000	        0.0000000000	        0.0000000000	        0.0000000000	        0.0000000000	        0.0000000000	
        0.5571023091	       52.0649879447	      321.2137494329	        9.6596908021	        0.3646527394	        0.0000000000	        0.0286272466	     -124.3813395674	      112.5596788791	      -44.0381886261	        0.8341047495	        0.0000000000	       -0.0428842170	        0.0000000000	        0.0000000000	        0.0000000000	        0.0000000000	        0.0000000000	        0.0000000000	
        0.5680258838	       26.5329781785	      227.0728399134	       16.7695486237	        0.3747254028	        0.0000000000	        0.0236603760	     -111.7897331971	      231.8041954688	      -67.3620714415	        0.8437570508	        0.0000000000	       -0.0421044444	        0.0000000000	        0.0000000000	        0.0000000000	        0.0000000000	        0.0000000000	        0.0000000000	
        0.5789494585	        9.8540395487	      164.5994317921	       17.9131013782	        0.3845912029	        0.0000000000	        0.0177604276	      -68.4158454987	      488.9444707540	       -9.7631583732	        0.8559613153	        0.0000000000	       -0.0434404124	        0.0000000000	        0.0000000000	        0.0000000000	        0.0000000000	        0.0000000000	        0.0000000000	
        0.5898730332	        0.7849433638	      132.3347692498	       14.2497041882	        0.3841100577	        0.0000000000	        0.0177623439	      -81.0964198978	      730.5282953664	       11.1236022735	        0.8632683841	        0.0000000000	       -0.0450486937	        0.0000000000	        0.0000000000	        0.0000000000	        0.0000000000	        0.0000000000	        0.0000000000	
        0.6007966079	       -5.3893759445	       89.5817482795	       10.2853078799	        0.3841819601	        0.0000000000	        0.0175575264	     -102.4583181433	      862.6188739788	       18.0370313023	        0.8687920631	        0.0000000000	       -0.0460148370	        0.0000000000	        0.0000000000	        0.0000000000	        0.0000000000	        0.0000000000	        0.0000000000	
        0.6117201826	      -14.2828347024	       38.1440138851	        5.2869272233	        0.3828451885	        0.0000000000	        0.0174053757	     -118.9333293390	      920.7406219339	       19.5594036971	        0.8744329200	        0.0000000000	       -0.0463045048	        0.0000000000	        0.0000000000	        0.0000000000	        0.0000000000	        0.0000000000	        0.0000000000	
        0.6226437573	        0.1495963281	       -0.1474897630	        0.0026781603	        0.0000000000	        0.0000000000	        0.0000000000	     -119.0673066792	      937.2068493605	       19.0419184747	        0.8806609274	        0.0000000000	       -0.0461014609	        0.0000000000	        0.0000000000	        0.0000000000	        0.0000000000	        0.0000000000	        0.0000000000	
        0.6335673320	        0.0004709182	       -0.0003880547	        0.0000291980	        0.0000000000	        0.0000000000	        0.0000000000	     -109.7417139893	      901.7873576268	       17.7605673331	        0.8860061348	        0.0000000000	       -0.0457306151	        0.0000000000	        0.0000000000	        0.0000000000	        0.0000000000	        0.0000000000	        0.0000000000	
        0.6444909066	        0.0001518205	       -0.0001099847	        0.0000107345	        0.0000000000	        0.0000000000	        0.0000000000	      -93.8528420856	      840.1216202673	       17.5961387160	        0.8900008380	        0.0000000000	       -0.0454024446	        0.0000000000	        0.0000000000	        0.0000000000	        0.0000000000	        0.0000000000	        0.0000000000	
        0.6554144813	        0.0005066602	       -0.0003317990	        0.0000379490	        0.0000000000	        0.0000000000	        0.0000000000	      -79.0121694423	      778.5808445093	       17.5506584263	        0.8934402036	        0.0000000000	       -0.0451999425	        0.0000000000	        0.0000000000	        0.0000000000	        0.0000000000	        0.0000000000	        0.0000000000	
        0.6663380560	        0.0078807692	       -0.0047560983	        0.0006166422	        0.0000000000	        0.0000000000	        0.0000000000	      -66.3316154603	      727.8334455487	       17.8276830643	        0.8966866707	        0.0000000000	       -0.0450952006	        0.0000000000	        0.0000000000	        0.0000000000	        0.0000000000	        0.0000000000	        0.0000000000	
        0.6772616307	       -0.0384377682	        0.0216799344	       -0.0031221281	        0.0000000000	        0.0000000000	        0.0000000000	      -55.1049617708	      687.4995745527	       18.4120968421	        0.8999600593	        0.0000000000	       -0.0450609672	        0.0000000000	        0.0000000000	        0.0000000000	        0.0000000000	        0.0000000000	        0.0000000000	
        0.6881852054	       -0.0369021484	        0.0196597025	       -0.0031060777	        0.0000000000	        0.0000000000	        0.0000000000	      -45.3999326208	      655.1826987644	       19.0558477376	        0.9034275134	        0.0000000000	       -0.0450725420	        0.0000000000	        0.0000000000	        0.0000000000	        0.0000000000	        0.0000000000	        0.0000000000	
        0.6991087801	       -0.0224548695	        0.0113828983	       -0.0019529038	        0.0000000000	        0.0000000000	        0.0000000000	      -36.9970280317	      629.7887820070	       19.8361394271	        0.9073159086	        0.0000000000	       -0.0450971829	        0.0000000000	        0.0000000000	        0.0000000000	        0.0000000000	        0.0000000000	        0.0000000000	
        0.7100323548	       -0.0156956618	        0.0076172053	       -0.0014083936	        0.0000000000	        0.0000000000	        0.0000000000	      -30.4717856713	      610.4425511865	       20.6867587114	        0.9117480023	        0.0000000000	       -0.0450985351	        0.0000000000	        0.0000000000	        0.0000000000	        0.0000000000	        0.0000000000	        0.0000000000	
        0.7209559295	       -0.0139895257	        0.0065320668	       -0.0012905100	        0.0000000000	        0.0000000000	        0.0000000000	      -25.7675883997	      596.5655234451	       21.2370415391	        0.9165718113	        0.0000000000	       -0.0450572264	        0.0000000000	        0.0000000000	        0.0000000000	        0.0000000000	        0.0000000000	        0.0000000000	
